# xmcd
#
# Track frame offsets:
#	150
#	15852
#	28015
#	41731
#	56116
#	69215
#
# Disc length: 1115 seconds
#
# Revision: 1
# Processed by: cddbd v1.5.2PL0 Copyright (c) Steve Scherf et al.
# Submitted via: audiograbber 1.83.01
#
DISCID=43045906
DTITLE=Big Jugs - It's OK
DYEAR=2010
DGENRE=Country
TTITLE0=Fifty Feet
TTITLE1=Slumpbuster
TTITLE2=Ghost Train
TTITLE3=It's OK
TTITLE4=Walk Away
TTITLE5=Lizzy
EXTD=
EXTT0=
EXTT1=
EXTT2=
EXTT3=
EXTT4=
EXTT5=
PLAYORDER=
